<svg data-v-55bb9c18="" width="62" height="62" viewBox="0 0 62 62" fill="none" xmlns="http://www.w3.org/2000/svg"><path data-v-55bb9c18="" d="M41.3334 54.25V49.0833C41.3334 46.3428 40.2447 43.7144 38.3068 41.7766C36.3689 39.8387 33.7406 38.75 31 38.75H12.9167C10.1761 38.75 7.54781 39.8387 5.60994 41.7766C3.67206 43.7144 2.58337 46.3428 2.58337 49.0833V54.25" stroke="#FFDA90" stroke-width="2" stroke-linecap="round" stroke-linejoin="round"></path><path data-v-55bb9c18="" d="M21.9583 28.4167C27.6653 28.4167 32.2917 23.7903 32.2917 18.0833C32.2917 12.3764 27.6653 7.75 21.9583 7.75C16.2514 7.75 11.625 12.3764 11.625 18.0833C11.625 23.7903 16.2514 28.4167 21.9583 28.4167Z" stroke="#FFDA90" stroke-width="2" stroke-linecap="round" stroke-linejoin="round"></path><path data-v-55bb9c18="" d="M43.9166 28.4167L49.0833 33.5833L59.4166 23.25" stroke="#FFDA90" stroke-width="2" stroke-linecap="round" stroke-linejoin="round"></path></svg>