<svg width="42" height="42" viewBox="0 0 42 42" fill="none" xmlns="http://www.w3.org/2000/svg" class="ml-3"><path d="M35.6981 5.02979H6.23902C5.53056 5.02979 4.95819 5.60216 4.95819 6.31062V35.7697C4.95819 36.4782 5.53056 37.0506 6.23902 37.0506H35.6981C36.4066 37.0506 36.979 36.4782 36.979 35.7697V6.31062C36.979 5.60216 36.4066 5.02979 35.6981 5.02979ZM14.4564 32.3155H9.70527V17.0336H14.4564V32.3155ZM12.0828 14.9442C11.5382 14.9442 11.0057 14.7827 10.5529 14.4801C10.1 14.1775 9.74707 13.7474 9.53865 13.2443C9.33022 12.7411 9.27568 12.1874 9.38194 11.6532C9.4882 11.119 9.75047 10.6283 10.1356 10.2432C10.5207 9.85809 11.0114 9.59581 11.5456 9.48956C12.0798 9.3833 12.6335 9.43784 13.1366 9.64626C13.6398 9.85469 14.0699 10.2077 14.3725 10.6605C14.6751 11.1134 14.8366 11.6458 14.8366 12.1904C14.8326 13.7114 13.5998 14.9442 12.0828 14.9442ZM32.2439 32.3155H27.4968V24.8827C27.4968 23.1095 27.4648 20.832 25.0272 20.832C22.5576 20.832 22.1774 22.7613 22.1774 24.7546V32.3155H17.4343V17.0336H21.9892V19.1229H22.0533C22.6857 17.9222 24.2347 16.6533 26.5482 16.6533C31.3593 16.6533 32.2439 19.8194 32.2439 23.9341V32.3155Z" fill="white"></path></svg>