<svg width="42" height="42" viewBox="0 0 47 47" fill="none" xmlns="http://www.w3.org/2000/svg"><path d="M23.5 27.3802C27.7281 27.3802 31.1666 23.9417 31.1666 19.7135C31.1666 15.4854 27.7281 12.0469 23.5 12.0469C19.2718 12.0469 15.8333 15.4854 15.8333 19.7135C15.8333 23.9417 19.2718 27.3802 23.5 27.3802ZM23.5 15.8802C25.6141 15.8802 27.3333 17.5995 27.3333 19.7135C27.3333 21.8276 25.6141 23.5469 23.5 23.5469C21.3859 23.5469 19.6666 21.8276 19.6666 19.7135C19.6666 17.5995 21.3859 15.8802 23.5 15.8802Z" fill="white"></path><path d="M22.3884 42.357C22.7128 42.5886 23.1014 42.7132 23.5001 42.7132C23.8987 42.7132 24.2873 42.5886 24.6117 42.357C25.1944 41.9449 38.889 32.0568 38.8334 19.7135C38.8334 11.259 31.9545 4.38013 23.5001 4.38013C15.0457 4.38013 8.16673 11.259 8.16673 19.7039C8.11115 32.0568 21.8057 41.9449 22.3884 42.357ZM23.5001 8.21346C29.8423 8.21346 35.0001 13.3712 35.0001 19.723C35.0403 28.2292 26.5897 35.8671 23.5001 38.3722C20.4123 35.8652 11.9598 28.2254 12.0001 19.7135C12.0001 13.3712 17.1578 8.21346 23.5001 8.21346Z" fill="white"></path></svg>