<svg width="42" height="42" viewBox="0 0 42 42" fill="none" xmlns="http://www.w3.org/2000/svg" class="ml-lg-4"><path d="M37.645 10.7256C36.4202 11.2539 35.0873 11.6342 33.7144 11.7823C35.1398 10.9355 36.2072 9.59764 36.7164 8.01982C35.3788 8.81549 33.9136 9.37343 32.3855 9.66889C31.7469 8.98615 30.9745 8.44225 30.1165 8.07108C29.2585 7.69991 28.3332 7.50943 27.3983 7.51149C23.6159 7.51149 20.5739 10.5775 20.5739 14.3399C20.5739 14.8683 20.6379 15.3966 20.742 15.9049C15.0783 15.6087 10.027 12.903 6.66887 8.7603C6.05697 9.80544 5.73632 10.9955 5.74026 12.2065C5.74026 14.5761 6.94505 16.6654 8.78224 17.8942C7.69955 17.8516 6.64222 17.554 5.69624 17.0257V17.1097C5.69624 20.4279 8.04176 23.1777 11.1678 23.8101C10.5808 23.9625 9.97704 24.0405 9.37062 24.0422C8.92633 24.0422 8.50606 23.9982 8.08178 23.9382C8.94634 26.6439 11.464 28.6092 14.4619 28.6732C12.1164 30.5104 9.17849 31.5911 5.98843 31.5911C5.41605 31.5911 4.88771 31.5711 4.33936 31.5071C7.36532 33.4483 10.9556 34.569 14.8222 34.569C27.3743 34.569 34.2428 24.1703 34.2428 15.1444C34.2428 14.8483 34.2428 14.5521 34.2227 14.2559C35.5516 13.2832 36.7164 12.0785 37.645 10.7256Z" fill="white"></path></svg>